<svg id="Layer_1" data-name="Layer 1" xmlns="http://www.w3.org/2000/svg" viewBox="0 0 57.63 54"><defs><style>.cls-1{fill:#4b1111;}.cls-2{fill:#fff;}.cls-3{fill:#b1b3b6;}</style></defs><title>Untitled-1</title><rect class="cls-1" width="53.58" height="54"/><polygon class="cls-2" points="46.46 21.49 42.48 21.49 42.25 21.49 42.15 21.7 39.26 27.71 36.37 21.7 36.27 21.49 36.04 21.49 32.19 21.49 31.83 21.49 31.83 21.86 31.83 23.91 31.83 24.27 32.19 24.27 32.85 24.27 32.85 32.87 32.14 32.87 31.77 32.87 31.77 33.24 31.77 35.29 31.77 35.65 32.14 35.65 36.46 35.65 36.82 35.65 36.82 35.29 36.82 33.24 36.82 32.87 36.46 32.87 35.71 32.87 35.71 26.77 38.94 33.42 39.27 34.1 39.6 33.42 42.86 26.75 42.86 32.87 42.15 32.87 41.78 32.87 41.78 33.24 41.78 35.29 41.78 35.65 42.15 35.65 46.46 35.65 46.83 35.65 46.83 35.29 46.83 33.24 46.83 32.87 46.46 32.87 45.72 32.87 45.72 24.27 46.46 24.27 46.83 24.27 46.83 23.91 46.83 21.86 46.83 21.49 46.46 21.49"/><path class="cls-2" d="M21.38,32.86H20.24L16.5,24.22h0.72V21.44h-6v2.78H12L8.3,32.86H6.75v2.78h5.45V32.86H11.4L12,31.43h4.49l0.62,1.44H16.3v2.78h5.45V32.86H21.38Zm-6.07-4.22H13.23l1-2.41Z"/><polygon class="cls-2" points="41.89 10.69 11.59 10.69 11.17 10.69 11.17 11.11 11.17 19.2 11.17 19.62 11.59 19.62 16.82 19.62 17.24 19.62 17.24 19.2 17.24 16.2 23.7 16.2 23.7 37.53 20.7 37.53 20.28 37.53 20.28 37.95 20.28 43.18 20.28 43.6 20.7 43.6 32.78 43.6 33.2 43.6 33.2 43.18 33.2 37.95 33.2 37.53 32.78 37.53 29.78 37.53 29.78 16.2 36.2 16.2 36.2 19.17 36.2 19.59 36.62 19.59 41.89 19.59 42.31 19.59 42.31 19.17 42.31 11.11 42.31 10.69 41.89 10.69"/><polygon class="cls-3" points="30.67 40.02 31.95 38.7 31.95 42.32 30.67 41.09 30.67 40.02"/><polygon class="cls-3" points="28.54 38.8 27.26 40.06 27.26 13.68 28.54 14.96 28.54 38.8"/><polygon class="cls-3" points="13.73 13.22 12.42 11.94 40.42 11.94 38.77 13.22 13.73 13.22"/><polygon class="cls-3" points="41.1 18.41 39.82 17.19 39.82 13.93 41.1 12.62 41.1 18.41"/><path class="cls-1" d="M55.48,52.93A1.07,1.07,0,1,1,56.55,54,1.08,1.08,0,0,1,55.48,52.93Zm1.89,0a0.81,0.81,0,1,0-.81.87A0.82,0.82,0,0,0,57.37,52.93Zm-1.23-.61h0.45a0.36,0.36,0,0,1,.45.36,0.3,0.3,0,0,1-.32.33l0.33,0.53H56.82L56.5,53H56.37v0.52H56.14V52.31Zm0.23,0.52h0.2c0.13,0,.25,0,0.25-0.18s-0.13-.17-0.25-0.17h-0.2v0.35Z"/></svg>